# xmcd
#
# Track frame offsets: 
#        150
#        12286
#        22281
#        35939
#        46950
#        59335
#        75006
#        85875
#        94925
#        106474
#        120067
#        134296
#        146153
#        161452
#
# Disc length: 2296 seconds
#
# Revision: 2
# Processed by: cddbd v1.5.2PL0 Copyright (c) Steve Scherf et al.
# Submitted via: ExactAudioCopy v0.99pb5
#
DISCID=b208f60e
DTITLE=Original Zillertaler Heimatklang Duo - So Nah am Himmel
DYEAR=2012
DGENRE=Folk
TTITLE0=Wir zwei wir grüssen herzlich euch
TTITLE1=Aufspieln demma heit
TTITLE2=Die Hexn vom Zillachtol
TTITLE3=In der Schi-Alm
TTITLE4=Wo der Almrausch schön blüht
TTITLE5=Wegen Liebeskummer woant ma ned
TTITLE6=Lasset uns das Leben geniessen
TTITLE7=Zünftig beim Mug
TTITLE8=An Vogelnest im Tuxertol
TTITLE9=So nah am Himmel
TTITLE10=Wenn überm Gamsberg die Sunn aufgeht
TTITLE11=Rund um die Welt
TTITLE12=Glocken der Liebe
TTITLE13=Auf ein neues und bis Bald
EXTD=
EXTT0=
EXTT1=
EXTT2=
EXTT3=
EXTT4=
EXTT5=
EXTT6=
EXTT7=
EXTT8=
EXTT9=
EXTT10=
EXTT11=
EXTT12=
EXTT13=
PLAYORDER=
